<svg xmlns="http://www.w3.org/2000/svg" viewBox="0 0 160.6 33.9" class="nav__logo__img"><path fill="#C10230" d="M20.8 16.8c5.7-6.6 12.2-6.6 13.6-6.6V0c-1.7 0-10.8.1-17 11.6 0 .1-.1.2-.1.3-1 2-3.6 4.9-3.6 4.9C7.5 23.4 0 23.7 0 23.7v10.2s10.9-.5 17.2-11.8c0 0 2.4-4 3.6-5.3"></path><path fill="#154372" d="M13.8 16.8C8.1 10.2 1.6 10.2.2 10.2V0c1.7 0 10.8.1 17 11.6 0 .1.1.2.1.3 1 2 3.6 4.9 3.6 4.9 6.1 6.5 13.6 6.9 13.6 6.9v10.2s-10.9-.5-17.2-11.8c.1 0-2.3-4-3.5-5.3"></path><path fill="#154372" d="M160.6 11.4v3h-.5v-2.5l-.9 2.5h-.4l-.9-2.5v2.5h-.5v-3h.8l.8 2.1.8-2.1h.8zm-5.9.5h.9v2.5h.6v-2.5h.9v-.5h-2.4v.5zM55 7.3h-3l-.1.2h.4c.3 0 .6.3.8.8.2.5.3 1.3.3 2.2v12.9l-6.9-16h-7.2l-.1.2h.3c.2 0 .5.2.6.7.2.5.3 1 .3 1.5v15.5c0 1.9-.4 2.9-1.1 3l-.5.2h6l.1-.2h-.4c-.3 0-.5-.3-.7-.8s-.3-1.3-.3-2.2V10.6l8.3 17.8c.1 0 4.7-.1 4.7-.1V10.5c0-1.9.3-2.9 1-3l.5-.2h-3zm30.6 19l-4-7 3.2-5.8c.5-.7 1-1.1 1-1.1.5-.5 1-.7 1.3-.9l-.1-.1h-5.3l-.1.2c.3.2.5.4.5.7 0 .1-.1.3-.2.5-.2.6-2.3 5.2-2.3 5.2s-1.9-5.1-2.1-5.4c-.1-.2-.1-.3-.1-.5.1-.3.2-.5.5-.6l-.1-.1H72v.1c.3.2.6.4.8.6.3.3.5.6.7.9l3.6 6.8-4 6.8c-.2.4-.5.8-.9 1-.2.2-.6.4-1.1.6l.6-3.2h-.2l-.1.2c-.4.5-1 .9-1.7 1.1-.8.3-1.8.4-3.1.4h-2.2c-.7 0-1.1-.1-1.3-.3-.2-.3-.4-.8-.4-1.7v-4.5h2.7c1.3 0 2.3.1 2.8.4.6.2.9.5.9.8l-.1-4c-.2.3-.5.6-.7.8-.5.2-1.5.4-3 .4h-2.7V13h3.9c1.1 0 1.9.1 2.5.4.6.2 1.1.6 1.3 1 .1.1.1.2.2.2s.1 0 .1-.1l-.5-3.1H58.6l-.1.1h.2c.4 0 .6.8.6 2.4v11.9c0 1.5-.3 2.3-.8 2.4l-.4.1h13.1v-.1l.1.1h5.4l.1-.1c-.2-.1-.4-.2-.4-.5 0-.4.2-.7.3-1.1.2-.5 2.3-5.4 2.3-5.4s2.2 5.5 2.4 5.8c.1.3.2.5.2.7s-.1.3-.3.5l.1.1h6.1l.1-.1c-.4-.2-.7-.4-1.1-.7-.3-.3-.6-.8-.9-1.2zm21.6-3.9c0 3.9-2.3 5.9-7 5.9h-8.6l-3.6.1-.2-.1.5-.1c.7-.1 1.1-1.1 1.1-3V10.5c0-2-.3-3-.8-3h-.3l.1-.2h9.4c2.8 0 4.8.4 6.1 1.2 1.3.8 1.9 2.1 1.9 4 0 1.2-.4 2.2-1.3 3-.8.8-2.1 1.4-3.9 1.7 2.2.3 3.8.9 4.9 1.8 1.1.9 1.6 2.1 1.7 3.4zm-13.3-6.1h3.8c1.2 0 2.1-.3 2.6-.9.5-.5.8-1.5.8-2.8 0-1.3-.2-2.2-.8-2.7-.6-.5-1.5-.8-2.8-.8h-3.6v7.2zm8.3 6.2c0-1.5-.4-2.6-1.1-3.3-.8-.7-1.9-1-3.6-1h-3.7v6.2c.1.9.3 1.4.6 1.7.4.3.9.4 1.6.4h1.6c1.7 0 2.9-.3 3.6-.9.7-.6 1.1-1.7 1-3.1zm35.1-11h.1l-.4.1c-.5.1-.8.9-.8 2.4v14.4h-3.8l-6.7-14.3v12c0 .8.1 1.4.2 1.8.1.4.3.6.5.6h.3l-.1.1h-9.5l-.1-.1c.4-.2.6-.4.6-.7 0-.2-.1-.8-.2-1.1-.1-.5-1.2-4.4-1.2-4.4h-4.6s-.9 3-1.1 3.7c0 .1-.3.9-.3 1.4 0 .4.2.7.7.9l-.1.2h-4.7l-.1-.1c.3-.3.7-.6 1.1-1.2.4-.6.7-1 .8-1.3l5.1-14.6h3.1l5.1 15c.1.3.3.7.6 1 .2.3.5.6.8.8.3-.4.5-1.1.5-2.3V13.3c0-.4-.1-.8-.2-1.2-.1-.4-.3-.6-.5-.6h-.3l.1-.1h5.8l5.5 13V14c0-.8 0-1.4-.2-1.8-.1-.5-.3-.7-.6-.7h-.4l.1-.1h2.4l2.5.1zm-21.7 9l-1.7-6.2-1.8 6.2h3.5zm36 5.6c-.9-1.7-1.5-2.7-1.7-3.1-.6-1-1.3-1.7-1.9-2.3-.8-.7-1.7-1.2-2.8-1.6l4.2-5.3c.2-.3.9-1.1 1.7-1.5.6-.3 1.1-.5 1.8-.8h-5.7l-.1.1c.2.1.3.3.3.4 0 .2-.1.4-.4.8-.2.3-3.8 6.7-3.8 6.7V14c0-1.5.2-2.3.6-2.4l.3-.1H139l-.1.1h.2c.4 0 .6.8.6 2.5V26c0 1.5-.2 2.3-.6 2.5l-.3.1h5.2l.1-.1h-.2c-.4 0-.5-.8-.5-2.5v-6.1c.6.8 1.1 1.6 1.6 2.4.5.9 3.8 6.2 3.8 6.2h5.3l.1-.1c-.7-.3-1.1-.6-1.5-1-.4-.4-.8-.8-1.1-1.3z"></path></svg>