<svg xmlns="http://www.w3.org/2000/svg" width="160.6" height="33.9" viewBox="0 0 160.6 33.9"><path d="M20.8,16.8c5.7-6.6,12.2-6.6,13.6-6.6V0c-1.7,0-10.8.1-17,11.6,0,.1-.1.2-.1.3a30.253,30.253,0,0,1-3.6,4.9A21.7,21.7,0,0,1,0,23.7V33.9A22.335,22.335,0,0,0,17.2,22.1a50.049,50.049,0,0,1,3.6-5.3" fill="#c10230"/><path d="M13.8,16.8C8.1,10.2,1.6,10.2.2,10.2V0c1.7,0,10.8.1,17,11.6,0,.1.1.2.1.3a30.253,30.253,0,0,0,3.6,4.9,21.987,21.987,0,0,0,13.6,6.9V33.9A22.335,22.335,0,0,1,17.3,22.1a34.922,34.922,0,0,0-3.5-5.3" fill="#154372"/><path d="M160.6,11.4v3h-.5V11.9l-.9,2.5h-.4l-.9-2.5v2.5h-.5v-3h.8l.8,2.1.8-2.1h.8Zm-5.9.5h.9v2.5h.6V11.9h.9v-.5h-2.4ZM55,7.3H52l-.1.2h.4c.3,0,.6.3.8.8a6.463,6.463,0,0,1,.3,2.2V23.4l-6.9-16H39.3l-.1.2h.3c.2,0,.5.2.6.7a4.013,4.013,0,0,1,.3,1.5V25.3c0,1.9-.4,2.9-1.1,3l-.5.2h6l.1-.2h-.4c-.3,0-.5-.3-.7-.8a6.463,6.463,0,0,1-.3-2.2V10.6l8.3,17.8c.1,0,4.7-.1,4.7-.1V10.5c0-1.9.3-2.9,1-3l.5-.2H55Zm30.6,19-4-7,3.2-5.8a5.972,5.972,0,0,1,1-1.1,6.142,6.142,0,0,1,1.3-.9l-.1-.1H81.7l-.1.2c.3.2.5.4.5.7a1.69,1.69,0,0,1-.2.5c-.2.6-2.3,5.2-2.3,5.2s-1.9-5.1-2.1-5.4a.9.9,0,0,1-.1-.5c.1-.3.2-.5.5-.6l-.1-.1H72v.1a5.547,5.547,0,0,1,.8.6,5.5,5.5,0,0,1,.7.9l3.6,6.8-4,6.8a2.189,2.189,0,0,1-.9,1,3.581,3.581,0,0,1-1.1.6l.6-3.2h-.2l-.1.2a3.369,3.369,0,0,1-1.7,1.1,8.969,8.969,0,0,1-3.1.4H64.4a1.876,1.876,0,0,1-1.3-.3,2.967,2.967,0,0,1-.4-1.7V20.2h2.7a6.328,6.328,0,0,1,2.8.4c.6.2.9.5.9.8l-.1-4a5.716,5.716,0,0,1-.7.8,8.782,8.782,0,0,1-3,.4H62.6V13h3.9a5.668,5.668,0,0,1,2.5.4,2.287,2.287,0,0,1,1.3,1c.1.1.1.2.2.2s.1,0,.1-.1l-.5-3.1H58.6l-.1.1h.2q.6,0,.6,2.4V25.8c0,1.5-.3,2.3-.8,2.4l-.4.1H71.2v-.1l.1.1h5.4l.1-.1c-.2-.1-.4-.2-.4-.5a4.508,4.508,0,0,1,.3-1.1c.2-.5,2.3-5.4,2.3-5.4s2.2,5.5,2.4,5.8a2.544,2.544,0,0,1,.2.7c0,.2-.1.3-.3.5l.1.1h6.1l.1-.1a6.726,6.726,0,0,1-1.1-.7,12.491,12.491,0,0,1-.9-1.2Zm21.6-3.9c0,3.9-2.3,5.9-7,5.9H91.6l-3.6.1-.2-.1.5-.1c.7-.1,1.1-1.1,1.1-3V10.5c0-2-.3-3-.8-3h-.3l.1-.2h9.4c2.8,0,4.8.4,6.1,1.2a4.261,4.261,0,0,1,1.9,4,3.8,3.8,0,0,1-1.3,3,7.086,7.086,0,0,1-3.9,1.7,9.684,9.684,0,0,1,4.9,1.8,4.688,4.688,0,0,1,1.7,3.4ZM93.9,16.3h3.8a3.273,3.273,0,0,0,2.6-.9,4.066,4.066,0,0,0,.8-2.8c0-1.3-.2-2.2-.8-2.7a4.251,4.251,0,0,0-2.8-.8H93.9Zm8.3,6.2a4.515,4.515,0,0,0-1.1-3.3,5.167,5.167,0,0,0-3.6-1H93.8v6.2a2.749,2.749,0,0,0,.6,1.7,2.537,2.537,0,0,0,1.6.4h1.6a5.575,5.575,0,0,0,3.6-.9,3.657,3.657,0,0,0,1-3.1Zm35.1-11h.1l-.4.1c-.5.1-.8.9-.8,2.4V28.4h-3.8l-6.7-14.3v12a7.449,7.449,0,0,0,.2,1.8c.1.4.3.6.5.6h.3l-.1.1h-9.5l-.1-.1c.4-.2.6-.4.6-.7a5.16,5.16,0,0,0-.2-1.1c-.1-.5-1.2-4.4-1.2-4.4h-4.6s-.9,3-1.1,3.7a7.828,7.828,0,0,0-.3,1.4.928.928,0,0,0,.7.9l-.1.2h-4.7l-.1-.1a6.751,6.751,0,0,0,1.1-1.2,7.6,7.6,0,0,0,.8-1.3L113,11.3h3.1l5.1,15a2.664,2.664,0,0,0,.6,1,3.043,3.043,0,0,0,.8.8,3.875,3.875,0,0,0,.5-2.3V13.3a5.019,5.019,0,0,0-.2-1.2c-.1-.4-.3-.6-.5-.6h-.3l.1-.1H128l5.5,13V14a4.439,4.439,0,0,0-.2-1.8c-.1-.5-.3-.7-.6-.7h-.4l.1-.1h2.4l2.5.1Zm-21.7,9-1.7-6.2-1.8,6.2Zm36,5.6c-.9-1.7-1.5-2.7-1.7-3.1a11.624,11.624,0,0,0-1.9-2.3,8.541,8.541,0,0,0-2.8-1.6l4.2-5.3a5.23,5.23,0,0,1,1.7-1.5c.6-.3,1.1-.5,1.8-.8h-5.7l-.1.1a.536.536,0,0,1,.3.4c0,.2-.1.4-.4.8-.2.3-3.8,6.7-3.8,6.7V14q0-2.25.6-2.4l.3-.1H139l-.1.1h.2c.4,0,.6.8.6,2.5V26c0,1.5-.2,2.3-.6,2.5l-.3.1H144l.1-.1h-.2c-.4,0-.5-.8-.5-2.5V19.9c.6.8,1.1,1.6,1.6,2.4.5.9,3.8,6.2,3.8,6.2h5.3l.1-.1a4.359,4.359,0,0,1-1.5-1,6.886,6.886,0,0,1-1.1-1.3Z" fill="#fff"/></svg>